X Lossless Decoder version 20170729 (150.3)

XLD extraction logfile from 2018-06-26 17:25:16 +0900

Vulpes Vulpes Schrencki / blue/shoegazer

Used drive : HL-DT-ST BD-RE  BH10NS30 (revision EL00)
Media type : Pressed CD

Ripper mode             : XLD Secure Ripper
Disable audio cache     : OK for the drive with a cache less than 1375KiB
Make use of C2 pointers : NO
Read offset correction  : 667
Max retry count         : 20
Gap status              : Analyzed, Appended

TOC of the extracted CD
     Track |   Start  |  Length  | Start sector | End sector 
    ---------------------------------------------------------
        1  | 00:00:00 | 04:01:71 |         0    |    18145   
        2  | 04:01:71 | 04:42:40 |     18146    |    39335   
        3  | 08:44:36 | 09:18:53 |     39336    |    81238   

AccurateRip Summary
    Disc not found in AccurateRip DB.

All Tracks
    Filename : /Users/m4c/Music/Vulpes Vulpes Schrencki - blueï¼shoegazer.flac
    CRC32 hash               : A32C3A16
    CRC32 hash (skip zero)   : EB3479A4
    Statistics
        Read error                           : 0
        Jitter error (maybe fixed)           : 0
        Retry sector count                   : 0
        Damaged sector count                 : 0

Track 01
    Pre-gap length : 00:02:00

    CRC32 hash               : 4737206D
    CRC32 hash (skip zero)   : 859E223D
    AccurateRip v1 signature : 850A0BA8
    AccurateRip v2 signature : C47D2935
        ->Track not present in AccurateRip database.
    Statistics
        Read error                           : 0
        Jitter error (maybe fixed)           : 0
        Retry sector count                   : 0
        Damaged sector count                 : 0

Track 02

    CRC32 hash               : 32CCCF3B
    CRC32 hash (skip zero)   : D4A95697
    AccurateRip v1 signature : E0A1E88E
    AccurateRip v2 signature : 968A5960
        ->Track not present in AccurateRip database.
    Statistics
        Read error                           : 0
        Jitter error (maybe fixed)           : 0
        Retry sector count                   : 0
        Damaged sector count                 : 0

Track 03

    CRC32 hash               : B2F99649
    CRC32 hash (skip zero)   : F5499FAA
    AccurateRip v1 signature : 442E01C2
    AccurateRip v2 signature : 1BA6E118
        ->Track not present in AccurateRip database.
    Statistics
        Read error                           : 0
        Jitter error (maybe fixed)           : 0
        Retry sector count                   : 0
        Damaged sector count                 : 0

No errors occurred

End of status report
